name C:\Users\u0101727\Documents\MyRepositories\upper-imu-dc\Results\main_tracking\Case_72\kinematics.mot
datacolumns 43
datarows 7
range 3.14000000 3.26000000
endheader 
time	clav_prot	clav_elev	scapula_abduction	scapula_elevation	scapula_upward_rot	scapula_winging	plane_elv	shoulder_elv	axial_rot	TrapeziusScapula_M/activation	TrapeziusScapula_S/activation	TrapeziusScapula_I/activation	TrapeziusClavicle_S/activation	SerratusAnterior_I/activation	SerratusAnterior_M/activation	SerratusAnterior_S/activation	Rhomboideus_S/activation	Rhomboideus_I/activation	LevatorScapulae/activation	Coracobrachialis/activation	DeltoideusClavicle_A/activation	DeltoideusScapula_P/activation	DeltoideusScapula_M/activation	LatissimusDorsi_S/activation	LatissimusDorsi_M/activation	LatissimusDorsi_I/activation	PectoralisMajorClavicle_S/activation	PectoralisMajorThorax_I/activation	PectoralisMajorThorax_M/activation	TeresMajor/activation	Infraspinatus_I/activation	Infraspinatus_S/activation	PectoralisMinor/activation	TeresMinor/activation	Subscapularis_S/activation	Subscapularis_M/activation	Subscapularis_I/activation	Supraspinatus_P/activation	Supraspinatus_A/activation	TRIlong/activation	BIC_long/activation	BIC_brevis/activation	
          3.14000000	        -19.02400628	         -6.70280869	         -8.57997986	         -4.29623017	          7.89817888	          7.09847294	        -21.54099844	         19.55422651	         35.63667887	          0.38884637	          0.44127647	          0.27393476	          0.51126920	          0.45491067	          0.61998968	          0.49711523	          0.50266089	          0.56043290	          0.61215143	          0.42368965	          0.42054790	          0.58093408	          0.58128407	          0.44235318	          0.44353221	          0.47823050	          0.44231520	          0.38589369	          0.43653759	          0.57016927	          0.43915695	          0.47023211	          0.41532068	          0.46350103	          0.47857108	          0.49951354	          0.53530376	          0.46739086	          0.43898692	          0.55153561	          0.42471049	          0.41208502	
          3.16000000	        -19.06320771	         -6.68754910	         -8.64366689	         -4.29070275	          7.91312088	          7.09576170	        -21.26905150	         20.05844586	         34.52454868	          0.38854892	          0.44520271	          0.27247003	          0.51396407	          0.45829563	          0.62407779	          0.49551019	          0.50282569	          0.55844615	          0.61339795	          0.42326152	          0.42151540	          0.57881514	          0.58409710	          0.43991401	          0.44118512	          0.47755538	          0.44306204	          0.38114773	          0.43430508	          0.56588699	          0.44657329	          0.47551978	          0.41073826	          0.46589055	          0.47503837	          0.49610771	          0.52998280	          0.46790785	          0.43962885	          0.55091913	          0.42626373	          0.41199032	
          3.18000000	        -19.10893018	         -6.65810828	         -8.70120766	         -4.28545778	          7.96722589	          7.07973228	        -21.03435583	         20.62164130	         33.35470416	          0.38861353	          0.44888660	          0.27147963	          0.51667635	          0.46154731	          0.62801477	          0.49349759	          0.50300980	          0.55636841	          0.61453418	          0.42305548	          0.42274278	          0.57638255	          0.58606539	          0.43737149	          0.43862232	          0.47686114	          0.44379648	          0.37650060	          0.43196749	          0.56162405	          0.45483004	          0.48124059	          0.40620756	          0.46838450	          0.47144925	          0.49257824	          0.52431852	          0.46845674	          0.44030356	          0.55025003	          0.42806616	          0.41224586	
          3.20000000	        -19.16342466	         -6.61618973	         -8.75612227	         -4.28193263	          8.06048292	          7.05128787	        -20.84400272	         21.24016395	         32.13437452	          0.38913472	          0.45250930	          0.27138271	          0.51933950	          0.46449657	          0.63157278	          0.49120132	          0.50324942	          0.55430674	          0.61546077	          0.42305217	          0.42406495	          0.57352714	          0.58718078	          0.43494032	          0.43598725	          0.47617586	          0.44458840	          0.37224413	          0.42968190	          0.55736776	          0.46328970	          0.48705111	          0.40190765	          0.47084780	          0.46803511	          0.48906735	          0.51864697	          0.46902437	          0.44106443	          0.54952375	          0.43001358	          0.41280568	
          3.22000000	        -19.22986154	         -6.56417292	         -8.81403468	         -4.28176080	          8.19155975	          7.01198805	        -20.70097461	         21.90778054	         30.87858124	          0.39036304	          0.45646256	          0.27240077	          0.52179371	          0.46709051	          0.63430159	          0.48875360	          0.50355989	          0.55247306	          0.61597196	          0.42327211	          0.42546825	          0.57030278	          0.58752438	          0.43277405	          0.43340062	          0.47552247	          0.44541032	          0.36856421	          0.42750127	          0.55342491	          0.47109047	          0.49243969	          0.39798606	          0.47305200	          0.46502666	          0.48580587	          0.51328907	          0.46955489	          0.44201170	          0.54863909	          0.43216222	          0.41369420	
          3.24000000	        -19.31244833	         -6.50462432	         -8.88268896	         -4.28655601	          8.35836623	          6.96374283	        -20.60397900	         22.61554438	         29.60994062	          0.39267956	          0.46112578	          0.27450489	          0.52381147	          0.46960950	          0.63571087	          0.48620958	          0.50400986	          0.55122150	          0.61586398	          0.42378174	          0.42706606	          0.56655539	          0.58727802	          0.43110019	          0.43106036	          0.47491775	          0.44620794	          0.36539209	          0.42529582	          0.55007358	          0.47710750	          0.49692506	          0.39466210	          0.47482414	          0.46252684	          0.48277720	          0.50844868	          0.47011867	          0.44311950	          0.54747501	          0.43443226	          0.41506276	
          3.26000000	        -19.41588157	         -6.43970864	         -8.97082162	         -4.29758651	          8.55863116	          6.90836350	        -20.54751439	         23.35250821	         28.35534477	          0.39601031	          0.46669687	          0.27798306	          0.52536560	          0.47194784	          0.63596881	          0.48369663	          0.50456810	          0.55030009	          0.61505367	          0.42449047	          0.42877905	          0.56244089	          0.58677425	          0.42977386	          0.42882129	          0.47435797	          0.44704479	          0.36240234	          0.42310367	          0.54690493	          0.48082627	          0.50005975	          0.39166939	          0.47604995	          0.46062737	          0.48009296	          0.50428240	          0.47070642	          0.44438831	          0.54590367	          0.43679906	          0.41673475	
